<?xml version="1.0" encoding="UTF-8" standalone="no"?><!DOCTYPE svg PUBLIC "-//W3C//DTD SVG 1.1//EN" "http://www.w3.org/Graphics/SVG/1.1/DTD/svg11.dtd"><svg width="100%" height="100%" viewBox="0 0 156 17" version="1.1" xmlns="http://www.w3.org/2000/svg" xmlns:xlink="http://www.w3.org/1999/xlink" xml:space="preserve" xmlns:serif="http://www.serif.com/" style="fill-rule:evenodd;clip-rule:evenodd;stroke-linejoin:round;stroke-miterlimit:2;"><g><g><path d="M21.333,1.84c0,-0.899 -0.729,-1.628 -1.628,-1.628l-17.271,-0c-0.899,-0 -1.628,0.729 -1.628,1.628l-0,10.311c-0,0.898 0.729,1.628 1.628,1.628l17.271,-0c0.899,-0 1.628,-0.73 1.628,-1.628l0,-10.311Zm-1.404,8.482c-0,-0.272 -0.221,-0.492 -0.492,-0.492l-1.866,-0c-0.272,-0 -0.492,0.22 -0.492,0.492l-0,0.984c-0,0.272 0.22,0.492 0.492,0.492l1.866,0c0.271,0 0.492,-0.22 0.492,-0.492l-0,-0.984Zm-14.855,-0c0,-0.272 -0.22,-0.492 -0.492,-0.492l-1.865,-0c-0.272,-0 -0.492,0.22 -0.492,0.492l-0,0.984c-0,0.272 0.22,0.492 0.492,0.492l1.865,0c0.272,0 0.492,-0.22 0.492,-0.492l0,-0.984Zm1.836,0.047c-0.182,0.176 -0.238,0.444 -0.143,0.678c0.094,0.234 0.322,0.387 0.574,0.387l3.167,0c0.219,0 0.422,-0.115 0.533,-0.304l4.29,-7.23c0.159,-0.267 0.095,-0.61 -0.149,-0.803c-0.244,-0.192 -0.593,-0.174 -0.816,0.042l-7.456,7.23Zm13.019,-3.866c-0,-0.272 -0.221,-0.492 -0.492,-0.492l-1.866,-0c-0.272,-0 -0.492,0.22 -0.492,0.492l-0,0.984c-0,0.272 0.22,0.492 0.492,0.492l1.866,0c0.271,0 0.492,-0.22 0.492,-0.492l-0,-0.984Zm-14.855,-0c0,-0.272 -0.22,-0.492 -0.492,-0.492l-1.865,-0c-0.272,-0 -0.492,0.22 -0.492,0.492l-0,0.984c-0,0.272 0.22,0.492 0.492,0.492l1.865,0c0.272,0 0.492,-0.22 0.492,-0.492l0,-0.984Zm-0.014,-3.819c0,-0.272 -0.22,-0.492 -0.492,-0.492l-1.865,-0c-0.272,-0 -0.493,0.22 -0.493,0.492l0,0.984c0,0.272 0.221,0.492 0.493,0.492l1.865,0c0.272,0 0.492,-0.22 0.492,-0.492l0,-0.984Zm14.854,0c0,-0.272 -0.22,-0.492 -0.492,-0.492l-1.865,-0c-0.272,-0 -0.492,0.22 -0.492,0.492l-0,0.984c-0,0.272 0.22,0.492 0.492,0.492l1.865,0c0.272,0 0.492,-0.22 0.492,-0.492l0,-0.984Z" style="fill:#fff7e3;"/></g><path d="M27.803,12.619c-0.113,-0 -0.208,-0.039 -0.286,-0.116c-0.077,-0.078 -0.116,-0.173 -0.116,-0.286l0,-10.39c0,-0.118 0.039,-0.215 0.116,-0.292c0.078,-0.078 0.173,-0.116 0.286,-0.116l4.886,-0c0.92,-0 1.673,0.128 2.257,0.385c0.585,0.256 1.018,0.621 1.298,1.093c0.281,0.472 0.421,1.037 0.421,1.696c0,0.385 -0.072,0.724 -0.216,1.016c-0.144,0.292 -0.318,0.532 -0.524,0.722c-0.205,0.189 -0.401,0.33 -0.588,0.424c0.414,0.186 0.777,0.499 1.091,0.939c0.314,0.439 0.471,0.951 0.471,1.537c0,0.7 -0.157,1.302 -0.471,1.808c-0.314,0.505 -0.772,0.895 -1.375,1.169c-0.602,0.274 -1.343,0.411 -2.222,0.411l-5.028,-0Zm2.476,-2.08l2.232,-0c0.463,-0 0.81,-0.133 1.042,-0.399c0.232,-0.266 0.348,-0.573 0.348,-0.919c0,-0.364 -0.119,-0.675 -0.358,-0.932c-0.238,-0.258 -0.582,-0.386 -1.032,-0.386l-2.232,-0l0,2.636Zm0,-4.666l2.082,-0c0.443,-0 0.773,-0.115 0.99,-0.343c0.218,-0.229 0.326,-0.515 0.326,-0.857c0,-0.343 -0.108,-0.624 -0.326,-0.844c-0.217,-0.22 -0.547,-0.33 -0.99,-0.33l-2.082,-0l0,2.374Z" style="fill:#f1ead7;fill-rule:nonzero;"/><path d="M38.073,12.619c-0.113,-0 -0.208,-0.039 -0.286,-0.116c-0.077,-0.078 -0.116,-0.173 -0.116,-0.286l0,-7.516c0,-0.114 0.039,-0.209 0.116,-0.286c0.078,-0.078 0.173,-0.116 0.286,-0.116l1.892,-0c0.114,-0 0.209,0.038 0.286,0.116c0.078,0.077 0.116,0.172 0.116,0.286l0,7.516c0,0.113 -0.038,0.208 -0.116,0.286c-0.077,0.077 -0.172,0.116 -0.286,0.116l-1.892,-0Zm-0.016,-9.512c-0.113,-0 -0.208,-0.039 -0.286,-0.116c-0.077,-0.078 -0.116,-0.173 -0.116,-0.286l0,-1.438c0,-0.114 0.039,-0.21 0.116,-0.289c0.078,-0.08 0.173,-0.119 0.286,-0.119l1.918,-0c0.114,-0 0.21,0.039 0.289,0.119c0.08,0.079 0.119,0.175 0.119,0.289l0,1.438c0,0.113 -0.039,0.208 -0.119,0.286c-0.079,0.077 -0.175,0.116 -0.289,0.116l-1.918,-0Z" style="fill:#f1ead7;fill-rule:nonzero;"/><path d="M41.641,12.619c-0.113,-0 -0.208,-0.039 -0.286,-0.116c-0.077,-0.078 -0.116,-0.173 -0.116,-0.286l0,-7.516c0,-0.114 0.039,-0.209 0.116,-0.286c0.078,-0.078 0.173,-0.116 0.286,-0.116l1.852,-0c0.114,-0 0.209,0.038 0.286,0.116c0.078,0.077 0.116,0.172 0.116,0.286l0,0.612c0.275,-0.334 0.636,-0.613 1.083,-0.837c0.448,-0.225 0.976,-0.337 1.585,-0.337c0.612,-0 1.156,0.139 1.631,0.417c0.476,0.278 0.85,0.684 1.123,1.22c0.274,0.535 0.41,1.194 0.41,1.977l0,4.464c0,0.113 -0.038,0.208 -0.116,0.286c-0.077,0.077 -0.172,0.116 -0.286,0.116l-2.012,-0c-0.113,-0 -0.208,-0.039 -0.286,-0.116c-0.077,-0.078 -0.116,-0.173 -0.116,-0.286l0,-4.364c0,-0.5 -0.121,-0.888 -0.364,-1.163c-0.242,-0.276 -0.594,-0.413 -1.054,-0.413c-0.444,-0 -0.796,0.137 -1.057,0.413c-0.26,0.275 -0.391,0.663 -0.391,1.163l0,4.364c0,0.113 -0.038,0.208 -0.116,0.286c-0.077,0.077 -0.172,0.116 -0.286,0.116l-2.002,-0Z" style="fill:#f1ead7;fill-rule:nonzero;"/><path d="M54.773,16.139c-0.822,-0 -1.503,-0.106 -2.042,-0.317c-0.538,-0.212 -0.966,-0.468 -1.283,-0.769c-0.316,-0.302 -0.543,-0.6 -0.679,-0.894c-0.136,-0.295 -0.209,-0.526 -0.22,-0.692c-0.01,-0.114 0.027,-0.21 0.111,-0.289c0.085,-0.08 0.182,-0.119 0.291,-0.119l2.034,-0c0.106,-0 0.192,0.025 0.259,0.076c0.068,0.05 0.123,0.134 0.165,0.25c0.058,0.117 0.13,0.239 0.217,0.365c0.088,0.126 0.215,0.229 0.383,0.31c0.168,0.08 0.396,0.121 0.684,0.121c0.32,-0 0.586,-0.05 0.797,-0.149c0.212,-0.1 0.371,-0.264 0.479,-0.492c0.108,-0.229 0.162,-0.536 0.162,-0.921l0,-1.074c-0.253,0.269 -0.571,0.487 -0.953,0.654c-0.382,0.166 -0.843,0.25 -1.385,0.25c-0.545,-0 -1.025,-0.082 -1.441,-0.246c-0.415,-0.164 -0.763,-0.405 -1.043,-0.721c-0.28,-0.317 -0.497,-0.705 -0.652,-1.163c-0.154,-0.459 -0.244,-0.986 -0.268,-1.582c-0.01,-0.286 -0.01,-0.568 0,-0.846c0.024,-0.57 0.112,-1.085 0.263,-1.547c0.152,-0.462 0.369,-0.857 0.652,-1.183c0.284,-0.327 0.633,-0.579 1.048,-0.756c0.416,-0.178 0.896,-0.266 1.441,-0.266c0.575,-0 1.068,0.109 1.48,0.328c0.412,0.218 0.748,0.494 1.008,0.826l0,-0.586c0,-0.114 0.039,-0.21 0.116,-0.289c0.078,-0.08 0.173,-0.119 0.286,-0.119l1.846,-0c0.114,-0 0.21,0.039 0.289,0.119c0.08,0.079 0.119,0.175 0.119,0.289l0.01,7.682c0,0.816 -0.164,1.501 -0.494,2.056c-0.329,0.554 -0.804,0.975 -1.425,1.263c-0.62,0.287 -1.372,0.431 -2.255,0.431Zm-0.114,-5.778c0.342,-0 0.617,-0.074 0.827,-0.222c0.21,-0.148 0.367,-0.34 0.469,-0.575c0.103,-0.236 0.162,-0.489 0.176,-0.759c0.011,-0.114 0.016,-0.277 0.016,-0.491c0,-0.214 -0.005,-0.375 -0.016,-0.481c-0.014,-0.271 -0.073,-0.524 -0.176,-0.759c-0.102,-0.236 -0.259,-0.427 -0.469,-0.575c-0.21,-0.148 -0.485,-0.222 -0.827,-0.222c-0.352,-0 -0.632,0.075 -0.84,0.226c-0.208,0.15 -0.357,0.353 -0.447,0.608c-0.09,0.254 -0.145,0.538 -0.167,0.85c-0.017,0.238 -0.017,0.477 0,0.716c0.022,0.312 0.077,0.595 0.167,0.85c0.09,0.254 0.239,0.457 0.447,0.608c0.208,0.15 0.488,0.226 0.84,0.226Z" style="fill:#f1ead7;fill-rule:nonzero;"/><path d="M63.823,12.779c-1.261,-0 -2.264,-0.342 -3.009,-1.026c-0.744,-0.684 -1.133,-1.699 -1.165,-3.044c-0.004,-0.074 -0.006,-0.167 -0.006,-0.28c0,-0.114 0.002,-0.204 0.006,-0.27c0.034,-0.846 0.223,-1.569 0.567,-2.17c0.345,-0.602 0.824,-1.06 1.437,-1.376c0.614,-0.316 1.334,-0.474 2.16,-0.474c0.934,-0 1.708,0.187 2.324,0.561c0.616,0.374 1.079,0.882 1.388,1.524c0.31,0.642 0.464,1.369 0.464,2.183l0,0.39c0,0.113 -0.039,0.208 -0.119,0.286c-0.079,0.077 -0.175,0.116 -0.289,0.116l-5.116,-0l0,0.11c0.008,0.313 0.062,0.596 0.161,0.848c0.1,0.252 0.249,0.452 0.449,0.601c0.2,0.148 0.443,0.223 0.728,0.223c0.212,-0 0.39,-0.033 0.534,-0.098c0.144,-0.066 0.265,-0.144 0.363,-0.236c0.098,-0.092 0.174,-0.171 0.227,-0.236c0.096,-0.112 0.174,-0.182 0.234,-0.208c0.06,-0.027 0.152,-0.04 0.276,-0.04l1.986,-0c0.103,-0 0.189,0.031 0.258,0.093c0.07,0.062 0.099,0.144 0.088,0.247c-0.01,0.182 -0.1,0.403 -0.268,0.662c-0.168,0.258 -0.415,0.511 -0.741,0.758c-0.326,0.246 -0.735,0.451 -1.227,0.613c-0.492,0.162 -1.062,0.243 -1.71,0.243Zm-1.358,-5.166l2.708,-0l0,-0.034c0,-0.347 -0.053,-0.647 -0.159,-0.9c-0.106,-0.254 -0.261,-0.449 -0.465,-0.586c-0.204,-0.138 -0.449,-0.206 -0.736,-0.206c-0.286,-0 -0.531,0.068 -0.733,0.206c-0.202,0.137 -0.355,0.332 -0.459,0.586c-0.104,0.253 -0.156,0.553 -0.156,0.9l0,0.034Z" style="fill:#f1ead7;fill-rule:nonzero;"/><path d="M72.846,12.619c-0.114,-0 -0.209,-0.039 -0.286,-0.116c-0.078,-0.078 -0.116,-0.173 -0.116,-0.286l-0,-10.39c-0,-0.118 0.038,-0.215 0.116,-0.292c0.077,-0.078 0.172,-0.116 0.286,-0.116l4.886,-0c0.92,-0 1.672,0.128 2.257,0.385c0.584,0.256 1.017,0.621 1.298,1.093c0.28,0.472 0.421,1.037 0.421,1.696c-0,0.385 -0.072,0.724 -0.216,1.016c-0.144,0.292 -0.319,0.532 -0.524,0.722c-0.206,0.189 -0.402,0.33 -0.588,0.424c0.413,0.186 0.777,0.499 1.091,0.939c0.314,0.439 0.471,0.951 0.471,1.537c-0,0.7 -0.157,1.302 -0.471,1.808c-0.314,0.505 -0.773,0.895 -1.375,1.169c-0.603,0.274 -1.344,0.411 -2.222,0.411l-5.028,-0Zm2.476,-2.08l2.232,-0c0.462,-0 0.81,-0.133 1.042,-0.399c0.232,-0.266 0.348,-0.573 0.348,-0.919c-0,-0.364 -0.12,-0.675 -0.358,-0.932c-0.239,-0.258 -0.583,-0.386 -1.032,-0.386l-2.232,-0l-0,2.636Zm-0,-4.666l2.082,-0c0.442,-0 0.772,-0.115 0.99,-0.343c0.217,-0.229 0.326,-0.515 0.326,-0.857c-0,-0.343 -0.109,-0.624 -0.326,-0.844c-0.218,-0.22 -0.548,-0.33 -0.99,-0.33l-2.082,-0l-0,2.374Z" style="fill:#fcbf49;fill-rule:nonzero;"/><path d="M86.562,12.779c-1.262,-0 -2.265,-0.342 -3.009,-1.026c-0.745,-0.684 -1.133,-1.699 -1.165,-3.044c-0.004,-0.074 -0.006,-0.167 -0.006,-0.28c-0,-0.114 0.002,-0.204 0.006,-0.27c0.033,-0.846 0.222,-1.569 0.567,-2.17c0.344,-0.602 0.823,-1.06 1.437,-1.376c0.613,-0.316 1.333,-0.474 2.16,-0.474c0.933,-0 1.708,0.187 2.324,0.561c0.616,0.374 1.078,0.882 1.388,1.524c0.309,0.642 0.464,1.369 0.464,2.183l-0,0.39c-0,0.113 -0.04,0.208 -0.119,0.286c-0.08,0.077 -0.176,0.116 -0.289,0.116l-5.116,-0l-0,0.11c0.008,0.313 0.061,0.596 0.161,0.848c0.099,0.252 0.249,0.452 0.449,0.601c0.2,0.148 0.442,0.223 0.728,0.223c0.212,-0 0.39,-0.033 0.534,-0.098c0.144,-0.066 0.265,-0.144 0.363,-0.236c0.098,-0.092 0.173,-0.171 0.227,-0.236c0.096,-0.112 0.174,-0.182 0.234,-0.208c0.06,-0.027 0.152,-0.04 0.276,-0.04l1.986,-0c0.102,-0 0.188,0.031 0.258,0.093c0.069,0.062 0.098,0.144 0.088,0.247c-0.011,0.182 -0.1,0.403 -0.268,0.662c-0.168,0.258 -0.415,0.511 -0.741,0.758c-0.326,0.246 -0.735,0.451 -1.227,0.613c-0.492,0.162 -1.062,0.243 -1.71,0.243Zm-1.358,-5.166l2.708,-0l-0,-0.034c-0,-0.347 -0.053,-0.647 -0.159,-0.9c-0.106,-0.254 -0.261,-0.449 -0.465,-0.586c-0.204,-0.138 -0.45,-0.206 -0.736,-0.206c-0.287,-0 -0.531,0.068 -0.733,0.206c-0.202,0.137 -0.355,0.332 -0.459,0.586c-0.104,0.253 -0.156,0.553 -0.156,0.9l-0,0.034Z" style="fill:#fcbf49;fill-rule:nonzero;"/><path d="M91.852,12.619c-0.114,-0 -0.209,-0.039 -0.286,-0.116c-0.078,-0.078 -0.116,-0.173 -0.116,-0.286l-0,-7.516c-0,-0.114 0.038,-0.209 0.116,-0.286c0.077,-0.078 0.172,-0.116 0.286,-0.116l1.852,-0c0.113,-0 0.208,0.038 0.286,0.116c0.077,0.077 0.116,0.172 0.116,0.286l-0,0.612c0.274,-0.334 0.635,-0.613 1.083,-0.837c0.447,-0.225 0.975,-0.337 1.585,-0.337c0.612,-0 1.155,0.139 1.631,0.417c0.475,0.278 0.849,0.684 1.123,1.22c0.273,0.535 0.41,1.194 0.41,1.977l-0,4.464c-0,0.113 -0.039,0.208 -0.116,0.286c-0.078,0.077 -0.173,0.116 -0.286,0.116l-2.012,-0c-0.114,-0 -0.209,-0.039 -0.286,-0.116c-0.078,-0.078 -0.116,-0.173 -0.116,-0.286l-0,-4.364c-0,-0.5 -0.122,-0.888 -0.364,-1.163c-0.243,-0.276 -0.594,-0.413 -1.054,-0.413c-0.444,-0 -0.797,0.137 -1.057,0.413c-0.261,0.275 -0.391,0.663 -0.391,1.163l-0,4.364c-0,0.113 -0.039,0.208 -0.116,0.286c-0.078,0.077 -0.173,0.116 -0.286,0.116l-2.002,-0Z" style="fill:#fcbf49;fill-rule:nonzero;"/><path d="M104.722,12.779c-0.787,-0 -1.485,-0.144 -2.094,-0.43c-0.61,-0.287 -1.092,-0.704 -1.447,-1.252c-0.356,-0.548 -0.551,-1.211 -0.585,-1.988c-0.011,-0.167 -0.016,-0.38 -0.016,-0.64c-0,-0.26 0.005,-0.477 0.016,-0.65c0.034,-0.782 0.228,-1.447 0.58,-1.996c0.352,-0.55 0.834,-0.968 1.447,-1.254c0.612,-0.287 1.312,-0.43 2.099,-0.43c0.738,-0 1.37,0.104 1.894,0.312c0.524,0.208 0.951,0.467 1.281,0.778c0.33,0.31 0.576,0.628 0.738,0.954c0.162,0.325 0.248,0.608 0.259,0.85c0.01,0.113 -0.027,0.208 -0.111,0.286c-0.085,0.077 -0.182,0.116 -0.291,0.116l-2.034,-0c-0.114,-0 -0.201,-0.028 -0.262,-0.082c-0.062,-0.055 -0.119,-0.136 -0.172,-0.244c-0.131,-0.322 -0.294,-0.554 -0.49,-0.697c-0.196,-0.144 -0.45,-0.215 -0.762,-0.215c-0.426,-0 -0.754,0.139 -0.985,0.419c-0.232,0.279 -0.357,0.707 -0.375,1.283c-0.015,0.426 -0.015,0.803 -0,1.13c0.025,0.589 0.152,1.018 0.38,1.288c0.228,0.269 0.554,0.404 0.98,0.404c0.332,-0 0.592,-0.072 0.782,-0.215c0.189,-0.144 0.346,-0.376 0.47,-0.697c0.046,-0.108 0.102,-0.19 0.167,-0.244c0.064,-0.055 0.153,-0.082 0.267,-0.082l2.034,-0c0.109,-0 0.206,0.038 0.291,0.116c0.084,0.077 0.121,0.172 0.111,0.286c-0.011,0.174 -0.064,0.384 -0.159,0.629c-0.096,0.244 -0.245,0.499 -0.447,0.763c-0.203,0.264 -0.466,0.509 -0.788,0.737c-0.323,0.227 -0.715,0.411 -1.175,0.553c-0.461,0.141 -0.995,0.212 -1.603,0.212Z" style="fill:#fcbf49;fill-rule:nonzero;"/><path d="M109.874,12.619c-0.114,-0 -0.209,-0.039 -0.286,-0.116c-0.078,-0.078 -0.116,-0.173 -0.116,-0.286l-0,-10.556c-0,-0.114 0.038,-0.209 0.116,-0.286c0.077,-0.078 0.172,-0.116 0.286,-0.116l2.052,-0c0.113,-0 0.208,0.038 0.286,0.116c0.077,0.077 0.116,0.172 0.116,0.286l-0,3.572c0.281,-0.334 0.632,-0.599 1.053,-0.797c0.42,-0.198 0.912,-0.297 1.475,-0.297c0.612,-0 1.16,0.139 1.646,0.417c0.485,0.278 0.868,0.684 1.148,1.22c0.28,0.535 0.42,1.194 0.42,1.977l-0,4.464c-0,0.113 -0.039,0.208 -0.116,0.286c-0.078,0.077 -0.173,0.116 -0.286,0.116l-2.062,-0c-0.114,-0 -0.209,-0.039 -0.286,-0.116c-0.078,-0.078 -0.116,-0.173 -0.116,-0.286l-0,-4.364c-0,-0.5 -0.122,-0.888 -0.364,-1.163c-0.243,-0.276 -0.594,-0.413 -1.054,-0.413c-0.444,-0 -0.798,0.137 -1.062,0.413c-0.264,0.275 -0.396,0.663 -0.396,1.163l-0,4.364c-0,0.113 -0.039,0.208 -0.116,0.286c-0.078,0.077 -0.173,0.116 -0.286,0.116l-2.052,-0Z" style="fill:#fcbf49;fill-rule:nonzero;"/><path d="M119.324,12.619c-0.114,-0 -0.209,-0.039 -0.286,-0.116c-0.078,-0.078 -0.116,-0.173 -0.116,-0.286l-0,-7.516c-0,-0.114 0.038,-0.209 0.116,-0.286c0.077,-0.078 0.172,-0.116 0.286,-0.116l1.752,-0c0.113,-0 0.208,0.038 0.286,0.116c0.077,0.077 0.116,0.172 0.116,0.286l-0,0.54c0.213,-0.282 0.51,-0.532 0.892,-0.752c0.381,-0.22 0.833,-0.337 1.356,-0.35c1.234,-0.027 2.081,0.434 2.54,1.384c0.245,-0.406 0.597,-0.738 1.055,-0.996c0.458,-0.259 0.956,-0.388 1.495,-0.388c0.552,-0 1.051,0.125 1.498,0.377c0.446,0.251 0.802,0.636 1.067,1.155c0.264,0.518 0.397,1.185 0.397,2l-0,4.546c-0,0.113 -0.039,0.208 -0.116,0.286c-0.078,0.077 -0.173,0.116 -0.286,0.116l-1.862,-0c-0.114,-0 -0.209,-0.039 -0.286,-0.116c-0.078,-0.078 -0.116,-0.173 -0.116,-0.286l-0,-4.436c-0,-0.371 -0.055,-0.666 -0.164,-0.885c-0.11,-0.22 -0.255,-0.378 -0.435,-0.474c-0.181,-0.097 -0.387,-0.145 -0.617,-0.145c-0.2,-0 -0.392,0.048 -0.576,0.145c-0.184,0.096 -0.332,0.254 -0.444,0.474c-0.112,0.219 -0.168,0.514 -0.168,0.885l-0,4.436c-0,0.113 -0.039,0.208 -0.116,0.286c-0.078,0.077 -0.173,0.116 -0.286,0.116l-1.862,-0c-0.114,-0 -0.209,-0.039 -0.286,-0.116c-0.078,-0.078 -0.116,-0.173 -0.116,-0.286l-0,-4.436c-0,-0.371 -0.057,-0.666 -0.17,-0.885c-0.114,-0.22 -0.261,-0.378 -0.441,-0.474c-0.181,-0.097 -0.383,-0.145 -0.605,-0.145c-0.2,-0 -0.392,0.05 -0.576,0.15c-0.184,0.1 -0.334,0.258 -0.449,0.474c-0.116,0.216 -0.173,0.507 -0.173,0.874l-0,4.442c-0,0.113 -0.039,0.208 -0.116,0.286c-0.078,0.077 -0.173,0.116 -0.286,0.116l-1.902,-0Z" style="fill:#fcbf49;fill-rule:nonzero;"/><path d="M135.47,12.779c-0.572,-0 -1.086,-0.11 -1.541,-0.33c-0.456,-0.22 -0.815,-0.517 -1.078,-0.891c-0.264,-0.374 -0.395,-0.795 -0.395,-1.263c-0,-0.759 0.308,-1.359 0.925,-1.799c0.616,-0.441 1.434,-0.742 2.453,-0.903l2.008,-0.302l-0,-0.22c-0,-0.386 -0.08,-0.679 -0.24,-0.881c-0.16,-0.202 -0.452,-0.303 -0.876,-0.303c-0.302,-0 -0.545,0.059 -0.729,0.178c-0.185,0.118 -0.335,0.277 -0.449,0.476c-0.094,0.133 -0.225,0.2 -0.394,0.2l-1.796,-0c-0.115,-0 -0.204,-0.033 -0.267,-0.099c-0.064,-0.066 -0.092,-0.151 -0.085,-0.253c0.006,-0.183 0.081,-0.401 0.223,-0.655c0.142,-0.254 0.362,-0.502 0.66,-0.744c0.298,-0.242 0.682,-0.445 1.152,-0.607c0.47,-0.163 1.038,-0.244 1.705,-0.244c0.689,-0 1.279,0.08 1.77,0.241c0.49,0.16 0.889,0.383 1.195,0.669c0.306,0.285 0.532,0.625 0.678,1.019c0.146,0.394 0.219,0.821 0.219,1.281l-0,4.868c-0,0.113 -0.039,0.208 -0.116,0.286c-0.078,0.077 -0.173,0.116 -0.286,0.116l-1.852,-0c-0.114,-0 -0.209,-0.039 -0.286,-0.116c-0.078,-0.078 -0.116,-0.173 -0.116,-0.286l-0,-0.562c-0.142,0.205 -0.328,0.392 -0.559,0.561c-0.232,0.168 -0.506,0.304 -0.824,0.408c-0.318,0.103 -0.685,0.155 -1.099,0.155Zm0.75,-1.828c0.317,-0 0.6,-0.067 0.849,-0.2c0.248,-0.134 0.444,-0.342 0.588,-0.624c0.143,-0.283 0.215,-0.637 0.215,-1.062l-0,-0.214l-1.364,0.238c-0.502,0.084 -0.866,0.213 -1.094,0.388c-0.228,0.174 -0.342,0.38 -0.342,0.618c-0,0.178 0.053,0.331 0.159,0.459c0.106,0.127 0.246,0.225 0.421,0.294c0.174,0.068 0.364,0.103 0.568,0.103Z" style="fill:#fcbf49;fill-rule:nonzero;"/><path d="M141.948,12.619c-0.114,-0 -0.209,-0.039 -0.286,-0.116c-0.078,-0.078 -0.116,-0.173 -0.116,-0.286l-0,-7.51c-0,-0.114 0.038,-0.21 0.116,-0.289c0.077,-0.08 0.172,-0.119 0.286,-0.119l1.846,-0c0.113,-0 0.209,0.039 0.289,0.119c0.079,0.079 0.119,0.175 0.119,0.289l-0,0.626c0.285,-0.327 0.627,-0.581 1.027,-0.762c0.399,-0.182 0.849,-0.272 1.349,-0.272l0.702,-0c0.113,-0 0.208,0.038 0.286,0.116c0.077,0.077 0.116,0.172 0.116,0.286l-0,1.644c-0,0.113 -0.039,0.208 -0.116,0.286c-0.078,0.077 -0.173,0.116 -0.286,0.116l-1.548,-0c-0.44,-0 -0.78,0.12 -1.02,0.36c-0.24,0.24 -0.36,0.58 -0.36,1.02l-0,4.09c-0,0.113 -0.04,0.208 -0.119,0.286c-0.08,0.077 -0.176,0.116 -0.289,0.116l-1.996,-0Z" style="fill:#fcbf49;fill-rule:nonzero;"/><path d="M147.522,12.619c-0.114,-0 -0.209,-0.039 -0.286,-0.116c-0.078,-0.078 -0.116,-0.173 -0.116,-0.286l-0,-10.556c-0,-0.114 0.038,-0.209 0.116,-0.286c0.077,-0.078 0.172,-0.116 0.286,-0.116l1.852,-0c0.113,-0 0.208,0.038 0.286,0.116c0.077,0.077 0.116,0.172 0.116,0.286l-0,5.364l2.218,-2.454c0.069,-0.071 0.14,-0.134 0.213,-0.189c0.072,-0.056 0.182,-0.083 0.329,-0.083l2.134,-0c0.102,-0 0.188,0.034 0.257,0.103c0.068,0.068 0.103,0.154 0.103,0.257c-0,0.042 -0.01,0.09 -0.03,0.142c-0.02,0.052 -0.053,0.094 -0.098,0.128l-2.888,3.102l3.288,3.978c0.078,0.088 0.118,0.171 0.118,0.25c-0,0.102 -0.035,0.188 -0.103,0.257c-0.069,0.068 -0.155,0.103 -0.257,0.103l-2.196,-0c-0.16,-0 -0.277,-0.03 -0.349,-0.09c-0.073,-0.06 -0.144,-0.121 -0.213,-0.182l-2.526,-3.038l-0,2.908c-0,0.113 -0.039,0.208 -0.116,0.286c-0.078,0.077 -0.173,0.116 -0.286,0.116l-1.852,-0Z" style="fill:#fcbf49;fill-rule:nonzero;"/></g></svg>